<svg width="200" height="200" viewBox="-50 -50 100 100" xmlns="http://www.w3.org/2000/svg">
    <g fill="#420666">
        <g transform="rotate(0) translate(0,35) rotate(90)">
            <polygon points="0,-20 10,0 0,20 -10,0" />
        </g>
        <g transform="rotate(60) translate(0,35) rotate(90)">
            <polygon points="0,-20 10,0 0,20 -10,0" />
        </g>
        <g transform="rotate(120) translate(0,35) rotate(90)">
            <polygon points="0,-20 10,0 0,20 -10,0" />
        </g>
        <g transform="rotate(180) translate(0,35) rotate(90)">
            <polygon points="0,-20 10,0 0,20 -10,0" />
        </g>
        <g transform="rotate(240) translate(0,35) rotate(90)">
            <polygon points="0,-20 10,0 0,20 -10,0" />
        </g>
        <g transform="rotate(300) translate(0,35) rotate(90)">
            <polygon points="0,-20 10,0 0,20 -10,0" />
        </g>
    </g>
</svg>